<?xml version="1.0" encoding="iso-8859-1"?>
<!-- Generator: Adobe Illustrator 16.0.0, SVG Export Plug-In . SVG Version: 6.00 Build 0)  -->
<!DOCTYPE svg PUBLIC "-//W3C//DTD SVG 1.1//EN" "http://www.w3.org/Graphics/SVG/1.1/DTD/svg11.dtd">
<svg version="1.1" id="Layer_1" xmlns="http://www.w3.org/2000/svg" xmlns:xlink="http://www.w3.org/1999/xlink" x="0px" y="0px"
	 width="94.75px" height="94.749px" viewBox="0 0 94.75 94.749" style="enable-background:new 0 0 94.75 94.749;"
	 xml:space="preserve">
<g>
	<g>
		<circle style="fill:none;stroke:#1B71EF;stroke-width:2;stroke-miterlimit:10;" cx="47.375" cy="47.375" r="46.375"/>
		<circle style="fill:#1B71EF;stroke:#1B71EF;stroke-width:2;stroke-miterlimit:10;" cx="47.375" cy="47.375" r="43.021"/>
	</g>
	<g>
		<g>
			<path style="fill:none;stroke:#FFF24D;stroke-miterlimit:10;" d="M50.775,25.544h7.486c2.359,0,4.275,1.918,4.275,4.279
				c0,2.361-1.916,4.278-4.275,4.278H32.595"/>
			<path style="fill:none;stroke:#FFF24D;stroke-miterlimit:10;" d="M43.291,59.765h9.625c2.361,0,4.278,1.918,4.278,4.279
				s-1.917,4.277-4.278,4.277h-17.11"/>
			<path style="fill:none;stroke:#FFF24D;stroke-miterlimit:10;" d="M43.291,42.654h-9.625c-2.363,0-4.278-1.917-4.278-4.279
				c0-2.361,1.915-4.276,4.278-4.276h23.73"/>
			<path style="fill:none;stroke:#FFF24D;stroke-miterlimit:10;" d="M58.263,51.208h9.625c2.36,0,4.278-1.916,4.278-4.276
				c0-2.362-1.918-4.278-4.278-4.278H42.222"/>
			<path style="fill:none;stroke:#FFF24D;stroke-miterlimit:10;" d="M51.846,59.765h-9.625c-2.364,0-4.278-1.914-4.278-4.278
				c0-2.362,1.915-4.278,4.278-4.278h25.667"/>
			<circle style="fill:none;stroke:#FFF24D;stroke-miterlimit:10;" cx="46.34" cy="25.724" r="4.279"/>
			<circle style="fill:none;stroke:#FFF24D;stroke-miterlimit:10;" cx="31.527" cy="68.319" r="4.278"/>
		</g>
	</g>
</g>
<g>
</g>
<g>
</g>
<g>
</g>
<g>
</g>
<g>
</g>
<g>
</g>
</svg>
